<?xml version="1.0" encoding="UTF-8"?>
<!DOCTYPE svg PUBLIC "-//W3C//DTD SVG 1.1//EN" "http://www.w3.org/Graphics/SVG/1.1/DTD/svg11.dtd">
<svg xmlns="http://www.w3.org/2000/svg" version="1.1" width="500px" height="200px" style="shape-rendering:geometricPrecision; text-rendering:geometricPrecision; image-rendering:optimizeQuality; fill-rule:evenodd; clip-rule:evenodd" xmlns:xlink="http://www.w3.org/1999/xlink">
<g><path style="opacity:0.833" fill="#cec6f2" d="M 142.5,33.5 C 134.113,34.068 125.78,34.7347 117.5,35.5C 116.791,34.596 115.791,34.2627 114.5,34.5C 117.803,33.5218 121.303,32.8551 125,32.5C 131.003,33.3369 136.837,33.6703 142.5,33.5 Z"/></g>
<g><path style="opacity:0.99" fill="#f79ce0" d="M 47.5,34.5 C 46.448,34.3505 45.448,34.5172 44.5,35C 46.4552,35.9533 48.1218,37.2866 49.5,39C 50.1667,39.6667 50.8333,39.6667 51.5,39C 50.7476,38.3292 50.4142,37.4959 50.5,36.5C 51.6266,37.1217 52.6266,37.955 53.5,39C 57.0252,39.1787 60.3586,39.6787 63.5,40.5C 62.448,40.3505 61.448,40.5172 60.5,41C 61.7388,44.2194 63.0722,47.3861 64.5,50.5C 61.6146,50.1936 58.9479,50.5269 56.5,51.5C 52.0481,49.918 51.3814,51.2514 54.5,55.5C 55.6136,56.7759 56.6136,56.7759 57.5,55.5C 61.937,56.1132 66.2703,56.7798 70.5,57.5C 69.325,57.281 68.325,57.6143 67.5,58.5C 68.3052,60.9154 69.3052,63.2487 70.5,65.5C 71.325,66.3857 72.325,66.719 73.5,66.5C 74.3798,67.5313 73.8798,68.198 72,68.5C 70.0025,67.3399 68.1692,67.3399 66.5,68.5C 65.2618,67.5876 63.9285,67.4209 62.5,68C 65.8578,75.7364 69.0244,83.5697 72,91.5C 73.0113,92.3366 74.1779,92.67 75.5,92.5C 77.5,92.5 79.5,92.5 81.5,92.5C 82.6602,93.265 83.6602,94.265 84.5,95.5C 84.2907,96.086 83.9574,96.586 83.5,97C 85.5408,102.285 87.8742,107.452 90.5,112.5C 91.1835,112.137 91.8501,111.804 92.5,111.5C 94.335,110.878 95.5017,109.544 96,107.5C 97.2778,103.835 98.4445,100.168 99.5,96.5C 102.309,96.0423 102.976,94.7089 101.5,92.5C 98.8333,92.5 96.1667,92.5 93.5,92.5C 95.7087,85.7448 98.2087,79.0781 101,72.5C 101.804,69.8541 103.304,67.8541 105.5,66.5C 107.807,66.9863 109.973,66.9863 112,66.5C 113.069,63.7919 114.236,61.1253 115.5,58.5C 114.311,57.5713 112.978,57.238 111.5,57.5C 109.126,58.6861 106.792,58.6861 104.5,57.5C 104.665,55.1732 105.331,53.0065 106.5,51C 105.207,50.51 103.873,50.3433 102.5,50.5C 95.5,50.5 88.5,50.5 81.5,50.5C 81.5,49.8333 81.5,49.1667 81.5,48.5C 89.3613,47.6361 97.1947,47.3028 105,47.5C 105.804,48.8045 106.971,49.4712 108.5,49.5C 110.568,48.3466 112.568,48.3466 114.5,49.5C 115.858,50.6256 117.192,50.6256 118.5,49.5C 120.105,46.6862 121.105,43.6862 121.5,40.5C 120.167,40.5 118.833,40.5 117.5,40.5C 115.833,40.5 114.167,40.5 112.5,40.5C 113.167,37.8333 114.833,36.1667 117.5,35.5C 125.78,34.7347 134.113,34.068 142.5,33.5C 143.791,33.2627 144.791,33.596 145.5,34.5C 144.761,34.369 144.094,34.5357 143.5,35C 145.167,36 146.5,37.3333 147.5,39C 148.749,39.7401 149.749,39.5735 150.5,38.5C 154.273,39.1031 157.939,39.7698 161.5,40.5C 160.448,40.3505 159.448,40.5172 158.5,41C 160.076,43.9508 160.743,47.1174 160.5,50.5C 157.391,50.2641 154.391,50.5975 151.5,51.5C 150.791,50.596 149.791,50.2627 148.5,50.5C 148.5,52.5 148.5,54.5 148.5,56.5C 149.791,56.7373 150.791,56.404 151.5,55.5C 155.605,56.1086 159.605,56.7752 163.5,57.5C 162.5,57.5 161.5,57.5 160.5,57.5C 160.5,60.8333 160.5,64.1667 160.5,67.5C 158.833,67.5 157.167,67.5 155.5,67.5C 155.334,75.5069 155.5,83.5069 156,91.5C 160.401,92.4667 164.901,92.8 169.5,92.5C 169.5,93.8333 169.5,95.1667 169.5,96.5C 168.167,96.5 166.833,96.5 165.5,96.5C 165.737,97.791 165.404,98.791 164.5,99.5C 164.5,98.5 164.5,97.5 164.5,96.5C 163.5,96.5 162.5,96.5 161.5,96.5C 161.5,101.833 161.5,107.167 161.5,112.5C 160.833,112.833 160.167,113.167 159.5,113.5C 158.791,112.596 157.791,112.263 156.5,112.5C 156.5,115.833 156.5,119.167 156.5,122.5C 157.791,122.737 158.791,122.404 159.5,121.5C 160.167,121.833 160.833,122.167 161.5,122.5C 161.5,127.5 161.5,132.5 161.5,137.5C 162.5,137.5 163.5,137.5 164.5,137.5C 161.5,138.093 158.5,138.926 155.5,140C 157.708,140.191 159.708,140.691 161.5,141.5C 159.598,144.337 158.931,147.671 159.5,151.5C 158.5,151.5 157.5,151.5 156.5,151.5C 155.5,151.5 154.5,151.5 153.5,151.5C 153.834,154.188 153.168,156.521 151.5,158.5C 145.409,158.789 139.409,158.455 133.5,157.5C 132.659,155.621 132.325,153.621 132.5,151.5C 133.167,151.5 133.833,151.5 134.5,151.5C 135.5,151.5 136.5,151.5 137.5,151.5C 137.5,148.167 137.5,144.833 137.5,141.5C 136.5,141.5 135.5,141.5 134.5,141.5C 130.833,141.5 127.167,141.5 123.5,141.5C 123.167,141.5 122.833,141.5 122.5,141.5C 122.5,140.167 122.5,138.833 122.5,137.5C 126.896,137.41 131.23,137.41 135.5,137.5C 136.833,137.5 138.167,137.5 139.5,137.5C 140.487,132.695 140.821,127.695 140.5,122.5C 137.167,122.5 133.833,122.5 130.5,122.5C 130.5,119.167 130.5,115.833 130.5,112.5C 130.833,112.5 131.167,112.5 131.5,112.5C 133.5,112.5 135.5,112.5 137.5,112.5C 137.833,112.5 138.167,112.5 138.5,112.5C 140.446,107.604 141.113,102.271 140.5,96.5C 140.715,94.8212 140.048,93.8212 138.5,93.5C 135.833,93.5 133.167,93.5 130.5,93.5C 128.097,93.393 126.264,94.393 125,96.5C 122.829,101.684 120.662,106.85 118.5,112C 119.094,112.464 119.761,112.631 120.5,112.5C 117.61,113.245 114.61,113.912 111.5,114.5C 111.294,112.451 110.461,112.117 109,113.5C 107.931,116.208 106.764,118.875 105.5,121.5C 106,121.833 106.5,122.167 107,122.5C 108.011,121.944 108.844,121.278 109.5,120.5C 109.62,121.586 110.287,122.253 111.5,122.5C 113.701,121.131 115.701,121.298 117.5,123C 116.934,123.995 116.267,124.828 115.5,125.5C 115.294,123.451 114.461,123.117 113,124.5C 111.02,130.454 108.52,136.12 105.5,141.5C 102.287,141.19 99.2869,141.523 96.5,142.5C 88.7249,145.457 80.7249,146.124 72.5,144.5C 71.3998,143.442 70.0664,142.608 68.5,142C 71.8333,141.667 75.1667,141.333 78.5,141C 74.5533,135.934 71.5533,130.434 69.5,124.5C 66.992,122.763 63.992,121.93 60.5,122C 59.0225,118.88 57.6892,115.714 56.5,112.5C 58.5,112.5 60.5,112.5 62.5,112.5C 63.3764,112.631 64.0431,112.298 64.5,111.5C 62.5933,106.609 60.5933,101.776 58.5,97C 59.8398,94.8511 59.1731,93.6845 56.5,93.5C 53.586,93.1949 50.9193,93.1949 48.5,93.5C 47.5,93.5 46.5,93.5 45.5,93.5C 45.5,94.5 45.5,95.5 45.5,96.5C 44.5,96.5 43.5,96.5 42.5,96.5C 42.5,101.833 42.5,107.167 42.5,112.5C 40.283,113.369 37.9496,113.702 35.5,113.5C 34.791,112.596 33.791,112.263 32.5,112.5C 32.5,115.833 32.5,119.167 32.5,122.5C 33.791,122.737 34.791,122.404 35.5,121.5C 39.2484,121.455 42.9151,121.788 46.5,122.5C 46.5,127.5 46.5,132.5 46.5,137.5C 47.791,137.737 48.791,137.404 49.5,136.5C 51.9349,136.966 54.2682,137.299 56.5,137.5C 54.8235,138.183 54.1568,139.517 54.5,141.5C 51.1667,141.5 47.8333,141.5 44.5,141.5C 43.5,141.5 42.5,141.5 41.5,141.5C 41.5,144.833 41.5,148.167 41.5,151.5C 42.5,151.5 43.5,151.5 44.5,151.5C 44.8333,151.5 45.1667,151.5 45.5,151.5C 45.8342,154.188 45.1675,156.521 43.5,158.5C 37.4093,158.789 31.4093,158.455 25.5,157.5C 24.6586,155.621 24.3253,153.621 24.5,151.5C 20.8333,151.5 17.1667,151.5 13.5,151.5C 13.8128,147.958 13.4794,144.625 12.5,141.5C 12.5,140.5 12.5,139.5 12.5,138.5C 14.4147,138.784 16.0813,138.451 17.5,137.5C 17.8261,128.983 17.4927,120.65 16.5,112.5C 16.1667,112.5 15.8333,112.5 15.5,112.5C 13.8333,112.5 12.1667,112.5 10.5,112.5C 10.1718,107.125 10.5052,101.792 11.5,96.5C 14.7577,95.5827 18.091,95.2493 21.5,95.5C 22.2971,96.4782 22.9638,96.1449 23.5,94.5C 22.9638,92.8551 22.2971,92.5218 21.5,93.5C 19.5,93.5 17.5,93.5 15.5,93.5C 13.5751,85.1007 12.9085,76.434 13.5,67.5C 15.5,67.5 17.5,67.5 19.5,67.5C 19.8333,67.5 20.1667,67.5 20.5,67.5C 21.7773,66.3064 22.4439,64.6397 22.5,62.5C 22.4604,60.5711 22.1271,58.7378 21.5,57C 15.1754,56.5005 8.84209,56.3338 2.5,56.5C 2.5,54.1667 2.5,51.8333 2.5,49.5C 6.5,49.5 10.5,49.5 14.5,49.5C 17.1062,50.1359 19.6062,50.1359 22,49.5C 22.498,46.5184 22.6646,43.5184 22.5,40.5C 19.8333,40.5 17.1667,40.5 14.5,40.5C 14.1667,40.5 13.8333,40.5 13.5,40.5C 15.2086,36.4819 18.2086,34.1485 22.5,33.5C 28.3623,33.6646 34.1957,33.3313 40,32.5C 42.7598,32.6462 45.2598,33.3128 47.5,34.5 Z M 35.5,67.5 C 36.3764,67.3691 37.0431,67.7025 37.5,68.5C 40.8333,76.1667 44.1667,83.8333 47.5,91.5C 46.675,92.3857 45.675,92.719 44.5,92.5C 42.736,86.527 40.4027,80.8603 37.5,75.5C 37.4162,72.6726 36.7496,70.006 35.5,67.5 Z M 130.5,83.5 C 129.691,85.2922 129.191,87.2922 129,89.5C 128.722,88.5842 128.222,87.9175 127.5,87.5C 127.5,83.5 127.5,79.5 127.5,75.5C 127.5,73.5 127.5,71.5 127.5,69.5C 128.222,69.0825 128.722,68.4158 129,67.5C 129.333,67.8333 129.667,68.1667 130,68.5C 130.499,73.4889 130.666,78.4889 130.5,83.5 Z M 125.5,79.5 C 127.049,83.9737 126.049,87.9737 122.5,91.5C 121.893,91.3764 121.56,91.0431 121.5,90.5C 123.119,86.931 124.452,83.2644 125.5,79.5 Z M 101.5,92.5 C 102.976,94.7089 102.309,96.0423 99.5,96.5C 100.167,95.1667 100.833,93.8333 101.5,92.5 Z M 138.5,93.5 C 140.048,93.8212 140.715,94.8212 140.5,96.5C 138.743,101.704 138.077,107.038 138.5,112.5C 138.167,112.5 137.833,112.5 137.5,112.5C 137.013,111.527 136.513,110.527 136,109.5C 134.69,110.897 133.19,111.897 131.5,112.5C 131.167,112.5 130.833,112.5 130.5,112.5C 129.458,111.209 128.292,111.209 127,112.5C 126.341,115.888 126.508,119.221 127.5,122.5C 130.39,123.245 133.39,123.912 136.5,124.5C 136.769,128.931 136.436,133.265 135.5,137.5C 131.23,137.41 126.896,137.41 122.5,137.5C 117.698,138.786 117.531,140.453 122,142.5C 122.399,142.272 122.565,141.938 122.5,141.5C 122.833,141.5 123.167,141.5 123.5,141.5C 123.5,142.167 123.5,142.833 123.5,143.5C 122.833,143.5 122.167,143.5 121.5,143.5C 120.5,143.5 119.5,143.5 118.5,143.5C 116.387,139.836 114.054,139.836 111.5,143.5C 109.517,143.843 108.183,143.176 107.5,141.5C 111.734,137.032 114.401,131.699 115.5,125.5C 116.267,124.828 116.934,123.995 117.5,123C 115.701,121.298 113.701,121.131 111.5,122.5C 110.287,122.253 109.62,121.586 109.5,120.5C 110.73,118.703 111.396,116.703 111.5,114.5C 114.61,113.912 117.61,113.245 120.5,112.5C 121.376,112.631 122.043,112.298 122.5,111.5C 124.036,105.186 126.703,99.5194 130.5,94.5C 132.937,95.9636 134.77,97.9636 136,100.5C 136.856,98.1316 137.69,95.7983 138.5,93.5 Z M 99.5,96.5 C 98.4445,100.168 97.2778,103.835 96,107.5C 95.5017,109.544 94.335,110.878 92.5,111.5C 92.5,110.5 92.5,109.5 92.5,108.5C 94.2927,106.574 95.2927,104.241 95.5,101.5C 96.4851,99.4939 97.8184,97.8273 99.5,96.5 Z M 137.5,123.5 C 138.492,123.328 139.158,123.662 139.5,124.5C 138.075,126.031 137.409,125.698 137.5,123.5 Z"/></g>
<g><path style="opacity:1" fill="#77f8fc" d="M 22.5,33.5 C 18.2086,34.1485 15.2086,36.4819 13.5,40.5C 12.5,40.5 11.5,40.5 10.5,40.5C 12.2062,34.6355 16.2062,32.3022 22.5,33.5 Z"/></g>
<g><path style="opacity:1" fill="#ff54fd" d="M 47.5,34.5 C 48.7095,34.9321 49.7095,35.5987 50.5,36.5C 50.4142,37.4959 50.7476,38.3292 51.5,39C 50.8333,39.6667 50.1667,39.6667 49.5,39C 48.1218,37.2866 46.4552,35.9533 44.5,35C 45.448,34.5172 46.448,34.3505 47.5,34.5 Z"/></g>
<g><path style="opacity:1" fill="#ff5ffc" d="M 145.5,34.5 C 148.204,34.6696 149.871,36.0029 150.5,38.5C 149.749,39.5735 148.749,39.7401 147.5,39C 146.5,37.3333 145.167,36 143.5,35C 144.094,34.5357 144.761,34.369 145.5,34.5 Z"/></g>
<g><path style="opacity:1" fill="#67fcfe" d="M 114.5,34.5 C 115.791,34.2627 116.791,34.596 117.5,35.5C 114.833,36.1667 113.167,37.8333 112.5,40.5C 111.5,40.5 110.5,40.5 109.5,40.5C 109.712,37.2876 111.379,35.2876 114.5,34.5 Z"/></g>
<g><path style="opacity:1" fill="#ff56fd" d="M 63.5,40.5 C 65.0577,43.2919 66.391,46.2919 67.5,49.5C 66.675,50.3857 65.675,50.719 64.5,50.5C 63.0722,47.3861 61.7388,44.2194 60.5,41C 61.448,40.5172 62.448,40.3505 63.5,40.5 Z"/></g>
<g><path style="opacity:0.928" fill="#6ff8fc" d="M 117.5,40.5 C 118.833,40.5 120.167,40.5 121.5,40.5C 121.105,43.6862 120.105,46.6862 118.5,49.5C 117.192,50.6256 115.858,50.6256 114.5,49.5C 116.353,46.7916 117.353,43.7916 117.5,40.5 Z"/></g>
<g><path style="opacity:1" fill="#ff41fe" d="M 161.5,40.5 C 163.175,43.5072 163.841,46.8405 163.5,50.5C 162.5,50.5 161.5,50.5 160.5,50.5C 160.743,47.1174 160.076,43.9508 158.5,41C 159.448,40.5172 160.448,40.3505 161.5,40.5 Z"/></g>
<g><path style="opacity:0.979" fill="#ff76ff" d="M 324.5,42.5 C 309.342,43.4962 294.009,43.8295 278.5,43.5C 278.5,46.5 278.5,49.5 278.5,52.5C 277.167,52.5 275.833,52.5 274.5,52.5C 273.988,49.3682 273.988,46.0349 274.5,42.5C 291.082,41.533 307.749,41.533 324.5,42.5 Z"/></g>
<g><path style="opacity:0.998" fill="#ff68ff" d="M 252.5,42.5 C 242.5,43.1667 232.5,43.8333 222.5,44.5C 218.662,45.3457 216.162,47.679 215,51.5C 215.22,65.1829 215.054,78.8495 214.5,92.5C 212.833,92.5 211.167,92.5 209.5,92.5C 209.333,79.1625 209.5,65.8292 210,52.5C 210.313,48.0346 212.479,44.8679 216.5,43C 228.495,42.5001 240.495,42.3335 252.5,42.5 Z"/></g>
<g><path style="opacity:0.28" fill="#cde5ff" d="M 252.5,42.5 C 253.391,43.1098 254.391,43.4431 255.5,43.5C 255.5,43.8333 255.5,44.1667 255.5,44.5C 244.5,44.5 233.5,44.5 222.5,44.5C 232.5,43.8333 242.5,43.1667 252.5,42.5 Z"/></g>
<g><path style="opacity:0.286" fill="#d3e9ff" d="M 324.5,42.5 C 326.339,43.7525 328.172,43.7525 330,42.5C 332.925,43.6319 334.092,45.7985 333.5,49C 333.456,50.7642 333.122,52.4309 332.5,54C 330.167,54.6667 327.833,54.6667 325.5,54C 327.344,51.1963 328.011,48.0297 327.5,44.5C 311.5,44.5 295.5,44.5 279.5,44.5C 279.244,46.7925 279.577,48.9592 280.5,51C 278.838,53.447 276.838,53.947 274.5,52.5C 275.833,52.5 277.167,52.5 278.5,52.5C 278.5,49.5 278.5,46.5 278.5,43.5C 294.009,43.8295 309.342,43.4962 324.5,42.5 Z"/></g>
<g><path style="opacity:1" fill="#ff6eff" d="M 389.5,43.5 C 376.656,43.1713 363.989,43.5046 351.5,44.5C 347.662,45.3457 345.162,47.679 344,51.5C 343.333,56.1667 343.333,60.8333 344,65.5C 344.904,68.2334 346.404,70.5667 348.5,72.5C 342.612,72.4465 339.445,69.4465 339,63.5C 338.049,57.6267 338.715,51.96 341,46.5C 341.833,45.6667 342.667,44.8333 343.5,44C 352.736,42.6611 362.069,41.8278 371.5,41.5C 377.693,41.757 383.693,42.4237 389.5,43.5 Z"/></g>
<g><path style="opacity:0.266" fill="#cee8ff" d="M 351.5,44.5 C 363.989,43.5046 376.656,43.1713 389.5,43.5C 390.5,43.5 391.5,43.5 392.5,43.5C 392.5,44.1667 392.5,44.8333 392.5,45.5C 378.912,44.5187 365.246,44.1853 351.5,44.5 Z"/></g>
<g><path style="opacity:1" fill="#ff47ff" d="M 453.5,42.5 C 441.833,43.1667 430.167,43.8333 418.5,44.5C 413.516,44.4851 410.183,46.8185 408.5,51.5C 407.34,63.3262 407.174,75.3262 408,87.5C 408.383,88.056 408.883,88.3893 409.5,88.5C 414.879,92.5294 414.213,93.3627 407.5,91C 405.84,89.5123 404.84,87.679 404.5,85.5C 404.5,73.5 404.5,61.5 404.5,49.5C 404.911,45.9209 406.911,43.7542 410.5,43C 421.7,42.8013 432.867,42.3013 444,41.5C 447.105,42.3672 450.272,42.7006 453.5,42.5 Z"/></g>
<g><path style="opacity:1" fill="#82fffe" d="M 255.5,44.5 C 255.5,44.1667 255.5,43.8333 255.5,43.5C 260.347,42.8404 264.181,44.5071 267,48.5C 268.119,56.4268 268.619,64.4268 268.5,72.5C 268.333,79.5 268.167,86.5 268,93.5C 266.096,94.6469 264.596,94.1469 263.5,92C 262.176,79.1733 262.176,66.3399 263.5,53.5C 262.889,48.5774 260.222,45.5774 255.5,44.5 Z"/></g>
<g><path style="opacity:1" fill="#00fffe" d="M 328.5,44.5 C 329.5,44.5 330.5,44.5 331.5,44.5C 331.5,47.5 331.5,50.5 331.5,53.5C 330.5,53.5 329.5,53.5 328.5,53.5C 328.5,50.5 328.5,47.5 328.5,44.5 Z"/></g>
<g><path style="opacity:1" fill="#71fffe" d="M 392.5,45.5 C 392.5,44.8333 392.5,44.1667 392.5,43.5C 393.802,42.1931 395.135,42.1931 396.5,43.5C 397.489,47.1073 397.823,50.774 397.5,54.5C 395.473,54.6621 393.473,54.4955 391.5,54C 392.444,51.2809 392.777,48.4475 392.5,45.5 Z"/></g>
<g><path style="opacity:0.831" fill="#b5f8ff" d="M 453.5,42.5 C 455.9,43.2683 458.233,43.6017 460.5,43.5C 462.578,46.869 462.911,50.369 461.5,54C 459.167,54.6667 456.833,54.6667 454.5,54C 456.34,51.1737 457.006,48.0071 456.5,44.5C 443.833,44.5 431.167,44.5 418.5,44.5C 430.167,43.8333 441.833,43.1667 453.5,42.5 Z"/></g>
<g><path style="opacity:1" fill="#00fffe" d="M 457.5,44.5 C 458.5,44.5 459.5,44.5 460.5,44.5C 460.5,47.5 460.5,50.5 460.5,53.5C 459.5,53.5 458.5,53.5 457.5,53.5C 457.5,50.5 457.5,47.5 457.5,44.5 Z"/></g>
<g><path style="opacity:0.384" fill="#a9f7fc" d="M 14.5,40.5 C 17.1667,40.5 19.8333,40.5 22.5,40.5C 22.6646,43.5184 22.498,46.5184 22,49.5C 19.6062,50.1359 17.1062,50.1359 14.5,49.5C 15.531,48.7515 16.6976,48.0848 18,47.5C 18.4955,45.5273 18.6621,43.5273 18.5,41.5C 17.1779,41.33 16.0113,41.6634 15,42.5C 14.5357,41.9056 14.369,41.2389 14.5,40.5 Z"/></g>
<g><path style="opacity:0.878" fill="#78f7fc" d="M 81.5,48.5 C 81.5,49.1667 81.5,49.8333 81.5,50.5C 77.4211,50.3309 76.9211,49.3309 80,47.5C 80.7648,47.5699 81.2648,47.9033 81.5,48.5 Z"/></g>
<g><path style="opacity:1" fill="#40f8fc" d="M -0.5,49.5 C 0.5,49.5 1.5,49.5 2.5,49.5C 2.5,51.8333 2.5,54.1667 2.5,56.5C 2.5,56.8333 2.5,57.1667 2.5,57.5C 1.5,57.5 0.5,57.5 -0.5,57.5C -0.5,54.8333 -0.5,52.1667 -0.5,49.5 Z"/></g>
<g><path style="opacity:1" fill="#ff42fc" d="M 56.5,51.5 C 57.2341,52.7079 57.5674,54.0413 57.5,55.5C 56.6136,56.7759 55.6136,56.7759 54.5,55.5C 51.3814,51.2514 52.0481,49.918 56.5,51.5 Z"/></g>
<g><path style="opacity:1" fill="#6efbfd" d="M 102.5,50.5 C 103.873,50.3433 105.207,50.51 106.5,51C 105.331,53.0065 104.665,55.1732 104.5,57.5C 103.022,57.762 101.689,57.4287 100.5,56.5C 101.372,54.5504 102.039,52.5504 102.5,50.5 Z"/></g>
<g><path style="opacity:1" fill="#fe19fc" d="M 151.5,51.5 C 151.5,52.8333 151.5,54.1667 151.5,55.5C 150.791,56.404 149.791,56.7373 148.5,56.5C 148.5,54.5 148.5,52.5 148.5,50.5C 149.791,50.2627 150.791,50.596 151.5,51.5 Z"/></g>
<g><path style="opacity:0.828" fill="#ffacff" d="M 404.5,49.5 C 404.5,61.5 404.5,73.5 404.5,85.5C 403.088,81.0789 402.421,76.4122 402.5,71.5C 403.183,66.1257 403.183,60.7924 402.5,55.5C 402.599,53.2014 403.266,51.2014 404.5,49.5 Z"/></g>
<g><path style="opacity:1" fill="#60fffe" d="M 225.5,53.5 C 226.5,53.5 227.5,53.5 228.5,53.5C 228.5,66.8333 228.5,80.1667 228.5,93.5C 227.027,94.0715 225.36,94.0715 223.5,93.5C 222.852,79.7914 223.519,66.4581 225.5,53.5 Z"/></g>
<g><path style="opacity:0.243" fill="#fef2ff" d="M 225.5,53.5 C 227.833,52.1667 230.167,52.1667 232.5,53.5C 231.508,53.3284 230.842,53.6618 230.5,54.5C 230.5,67.1667 230.5,79.8333 230.5,92.5C 229.833,92.8333 229.167,93.1667 228.5,93.5C 228.5,80.1667 228.5,66.8333 228.5,53.5C 227.5,53.5 226.5,53.5 225.5,53.5 Z"/></g>
<g><path style="opacity:0.884" fill="#fe00ff" d="M 230.5,54.5 C 231.5,54.5 232.5,54.5 233.5,54.5C 233.5,67.1667 233.5,79.8333 233.5,92.5C 232.5,92.5 231.5,92.5 230.5,92.5C 230.5,79.8333 230.5,67.1667 230.5,54.5 Z"/></g>
<g><path style="opacity:0.999" fill="#1dfffe" d="M 247.5,93.5 C 246.348,94.625 245.348,94.625 244.5,93.5C 244.5,80.5 244.5,67.5 244.5,54.5C 245.5,54.5 246.5,54.5 247.5,54.5C 247.5,67.5 247.5,80.5 247.5,93.5 Z"/></g>
<g><path style="opacity:0.297" fill="#cef0ff" d="M 252.5,53.5 C 251.508,53.3284 250.842,53.6618 250.5,54.5C 250.5,67.1667 250.5,79.8333 250.5,92.5C 249.677,89.023 249.177,85.3563 249,81.5C 248.824,85.6877 248.324,89.6877 247.5,93.5C 247.5,80.5 247.5,67.5 247.5,54.5C 246.5,54.5 245.5,54.5 244.5,54.5C 244.5,67.5 244.5,80.5 244.5,93.5C 243.175,80.3274 243.175,66.9941 244.5,53.5C 247.259,53.4081 249.925,53.4081 252.5,53.5 Z"/></g>
<g><path style="opacity:0.725" fill="#fe00ff" d="M 250.5,54.5 C 251.5,54.5 252.5,54.5 253.5,54.5C 253.5,67.1667 253.5,79.8333 253.5,92.5C 252.5,92.5 251.5,92.5 250.5,92.5C 250.5,79.8333 250.5,67.1667 250.5,54.5 Z"/></g>
<g><path style="opacity:0.02" fill="#fefffe" d="M 254.5,54.5 C 257.748,65.2134 258.248,76.2134 256,87.5C 255.722,88.4158 255.222,89.0825 254.5,89.5C 254.5,77.8333 254.5,66.1667 254.5,54.5 Z"/></g>
<g><path style="opacity:1" fill="#ff59ff" d="M 283.5,83.5 C 281.833,83.5 280.167,83.5 278.5,83.5C 278.5,86.5 278.5,89.5 278.5,92.5C 277.167,92.5 275.833,92.5 274.5,92.5C 274.5,89.1667 274.5,85.8333 274.5,82.5C 279.5,82.5 284.5,82.5 289.5,82.5C 291.781,82.9227 293.448,82.256 294.5,80.5C 294.817,71.5822 294.484,62.7489 293.5,54C 295.134,53.5065 296.801,53.3398 298.5,53.5C 299.646,63.6578 299.813,73.6578 299,83.5C 293.934,83.8868 288.768,83.8868 283.5,83.5 Z"/></g>
<g><path style="opacity:0.999" fill="#6efffe" d="M 312.5,53.5 C 312.5,63.1667 312.5,72.8333 312.5,82.5C 312.5,82.8333 312.5,83.1667 312.5,83.5C 310.584,85.1157 309.084,84.7823 308,82.5C 307.333,73.1667 307.333,63.8333 308,54.5C 308.667,53.8333 309.333,53.1667 310,52.5C 310.671,53.2524 311.504,53.5858 312.5,53.5 Z"/></g>
<g><path style="opacity:0.007" fill="#fcfffe" d="M 312.5,53.5 C 313.239,53.369 313.906,53.5357 314.5,54C 313.515,63.4166 313.182,72.9166 313.5,82.5C 313.167,82.5 312.833,82.5 312.5,82.5C 312.5,72.8333 312.5,63.1667 312.5,53.5 Z"/></g>
<g><path style="opacity:1" fill="#6ffffe" d="M 422.5,82.5 C 421.833,82.5 421.5,82.8333 421.5,83.5C 420.432,84.4345 419.099,84.7678 417.5,84.5C 417.334,74.1613 417.5,63.828 418,53.5C 419.77,52.7236 421.603,52.8903 423.5,54C 422.515,63.4166 422.182,72.9166 422.5,82.5 Z"/></g>
<g><path style="opacity:0.859" fill="#c1c6f0" d="M 2.5,57.5 C 2.5,57.1667 2.5,56.8333 2.5,56.5C 8.84209,56.3338 15.1754,56.5005 21.5,57C 22.1271,58.7378 22.4604,60.5711 22.5,62.5C 22.4439,64.6397 21.7773,66.3064 20.5,67.5C 21.783,64.157 21.6163,60.8237 20,57.5C 19.3333,58.8333 18.6667,60.1667 18,61.5C 17.5172,60.552 17.3505,59.552 17.5,58.5C 12.5275,57.8363 7.52745,57.5029 2.5,57.5 Z"/></g>
<g><path style="opacity:1" fill="#ff4afd" d="M 70.5,57.5 C 72.0951,60.2854 73.0951,63.2854 73.5,66.5C 72.325,66.719 71.325,66.3857 70.5,65.5C 69.3052,63.2487 68.3052,60.9154 67.5,58.5C 68.325,57.6143 69.325,57.281 70.5,57.5 Z"/></g>
<g><path style="opacity:0.359" fill="#84f8fc" d="M 111.5,57.5 C 112.978,57.238 114.311,57.5713 115.5,58.5C 114.236,61.1253 113.069,63.7919 112,66.5C 109.973,66.9863 107.807,66.9863 105.5,66.5C 108.93,64.6955 110.93,61.6955 111.5,57.5 Z"/></g>
<g><path style="opacity:1" fill="#fe1bfd" d="M 163.5,57.5 C 163.5,60.8333 163.5,64.1667 163.5,67.5C 162.5,67.5 161.5,67.5 160.5,67.5C 160.5,64.1667 160.5,60.8333 160.5,57.5C 161.5,57.5 162.5,57.5 163.5,57.5 Z"/></g>
<g><path style="opacity:0.177" fill="#fc99ff" d="M 250.5,54.5 C 250.842,53.6618 251.508,53.3284 252.5,53.5C 253.492,53.3284 254.158,53.6618 254.5,54.5C 254.5,66.1667 254.5,77.8333 254.5,89.5C 254.737,90.791 254.404,91.791 253.5,92.5C 253.5,79.8333 253.5,67.1667 253.5,54.5C 252.5,54.5 251.5,54.5 250.5,54.5 Z"/></g>
<g><path style="opacity:1" fill="#9af3ff" d="M 353.5,52.5 C 355.854,52.838 358.187,53.338 360.5,54C 359.552,54.4828 358.552,54.6495 357.5,54.5C 357.042,57.3938 357.709,59.8938 359.5,62C 367.882,62.1959 376.215,62.6959 384.5,63.5C 388.422,62.504 391.922,63.504 395,66.5C 395.667,67.8333 396.333,69.1667 397,70.5C 397.667,75.8333 397.667,81.1667 397,86.5C 394.613,92.6087 390.446,94.7754 384.5,93C 388,91.5 390.5,89 392,85.5C 392.851,79.7469 392.517,74.0802 391,68.5C 389.681,66.5125 387.848,65.3459 385.5,65C 374.833,64.6667 364.167,64.3333 353.5,64C 352.2,60.1675 352.2,56.3342 353.5,52.5 Z"/></g>
<g><path style="opacity:1" fill="#ff50fd" d="M 66.5,68.5 C 69.8965,76.3568 72.8965,84.3568 75.5,92.5C 74.1779,92.67 73.0113,92.3366 72,91.5C 69.0244,83.5697 65.8578,75.7364 62.5,68C 63.9285,67.4209 65.2618,67.5876 66.5,68.5 Z"/></g>
<g><path style="opacity:0.788" fill="#63f9fd" d="M 105.5,66.5 C 103.304,67.8541 101.804,69.8541 101,72.5C 98.2087,79.0781 95.7087,85.7448 93.5,92.5C 91.8212,92.7148 90.8212,92.0481 90.5,90.5C 92.1652,85.8382 93.8318,81.1715 95.5,76.5C 97.1054,75.9941 97.4387,75.3274 96.5,74.5C 97.6935,71.9476 99.0268,69.4476 100.5,67C 102.134,66.5065 103.801,66.3398 105.5,66.5 Z"/></g>
<g><path style="opacity:1" fill="#fe00ff" d="M 152.5,67.5 C 153.825,71.2762 154.491,75.4428 154.5,80C 154.167,84.1667 153.833,88.3333 153.5,92.5C 152.502,84.1932 152.169,75.8599 152.5,67.5 Z"/></g>
<g><path style="opacity:0.148" fill="#ffc2ff" d="M 408.5,51.5 C 408.227,63.8706 408.56,76.2039 409.5,88.5C 408.883,88.3893 408.383,88.056 408,87.5C 407.174,75.3262 407.34,63.3262 408.5,51.5 Z"/></g>
<g><path style="opacity:1" fill="#ff45fc" d="M 127.5,69.5 C 127.5,71.5 127.5,73.5 127.5,75.5C 126.655,76.6715 125.989,78.0048 125.5,79.5C 124.452,83.2644 123.119,86.931 121.5,90.5C 120.662,90.8417 120.328,91.5084 120.5,92.5C 119.325,92.719 118.325,92.3857 117.5,91.5C 120.569,83.7929 123.736,76.1263 127,68.5C 127.399,68.7284 127.565,69.0618 127.5,69.5 Z"/></g>
<g><path style="opacity:1" fill="#fb25fb" d="M 35.5,67.5 C 36.7496,70.006 37.4162,72.6726 37.5,75.5C 37.5,81.1667 37.5,86.8333 37.5,92.5C 36.5,92.5 35.5,92.5 34.5,92.5C 34.1739,83.9832 34.5073,75.6499 35.5,67.5 Z"/></g>
<g><path style="opacity:0.008" fill="#d8fdfe" d="M 77.5,74.5 C 75.5168,74.1568 74.1834,74.8235 73.5,76.5C 72.5,76.5 71.5,76.5 70.5,76.5C 70.5,75.5 70.5,74.5 70.5,73.5C 71.8221,73.67 72.9887,73.3366 74,72.5C 75.3024,73.0848 76.469,73.7515 77.5,74.5 Z"/></g>
<g><path style="opacity:0.004" fill="#fefffe" d="M 348.5,72.5 C 349.833,73.1667 349.833,73.1667 348.5,72.5 Z"/></g>
<g><path style="opacity:0.229" fill="#82e2f6" d="M 19.5,67.5 C 17.5,67.5 15.5,67.5 13.5,67.5C 12.9085,76.434 13.5751,85.1007 15.5,93.5C 13.8333,93.5 12.1667,93.5 10.5,93.5C 10.5,91.8333 10.5,90.1667 10.5,88.5C 11.2679,89.2625 11.7679,90.2625 12,91.5C 12.1667,88.6667 12.3333,85.8333 12.5,83C 12.4809,79.7485 11.8142,76.9151 10.5,74.5C 10.5,72.1667 10.5,69.8333 10.5,67.5C 10.8656,66.3054 11.699,65.6387 13,65.5C 16.0778,67.111 17.7444,66.111 18,62.5C 18.3519,64.2475 18.8519,65.9142 19.5,67.5 Z"/></g>
<g><path style="opacity:0.793" fill="#e29ce8" d="M 77.5,74.5 C 83.8333,74.5 90.1667,74.5 96.5,74.5C 97.4387,75.3274 97.1054,75.9941 95.5,76.5C 88.1667,76.5 80.8333,76.5 73.5,76.5C 74.1834,74.8235 75.5168,74.1568 77.5,74.5 Z"/></g>
<g><path style="opacity:0.038" fill="#fffcff" d="M 127.5,75.5 C 127.5,79.5 127.5,83.5 127.5,87.5C 127.5,89.1667 127.5,90.8333 127.5,92.5C 125.167,92.5 122.833,92.5 120.5,92.5C 120.328,91.5084 120.662,90.8417 121.5,90.5C 121.56,91.0431 121.893,91.3764 122.5,91.5C 126.049,87.9737 127.049,83.9737 125.5,79.5C 125.989,78.0048 126.655,76.6715 127.5,75.5 Z"/></g>
<g><path style="opacity:0.353" fill="#fc78ff" d="M 230.5,54.5 C 230.842,53.6618 231.508,53.3284 232.5,53.5C 233.83,59.6307 234.497,66.1307 234.5,73C 234.5,79.6755 234.166,86.1755 233.5,92.5C 233.5,79.8333 233.5,67.1667 233.5,54.5C 232.5,54.5 231.5,54.5 230.5,54.5 Z"/></g>
<g><path style="opacity:0.068" fill="#fcf8ff" d="M 37.5,75.5 C 40.4027,80.8603 42.736,86.527 44.5,92.5C 42.1667,92.5 39.8333,92.5 37.5,92.5C 37.5,86.8333 37.5,81.1667 37.5,75.5 Z"/></g>
<g><path style="opacity:0.006" fill="#fefffe" d="M 294.5,80.5 C 293.448,82.256 291.781,82.9227 289.5,82.5C 291.028,81.6908 292.694,81.0241 294.5,80.5 Z"/></g>
<g><path style="opacity:0.016" fill="#fff3ff" d="M 379.5,73.5 C 379.5,76.5 379.5,79.5 379.5,82.5C 368.5,82.5 357.5,82.5 346.5,82.5C 356.984,80.594 367.651,80.2606 378.5,81.5C 378.194,78.6146 378.527,75.9479 379.5,73.5 Z"/></g>
<g><path style="opacity:1" fill="#ff7bff" d="M 346.5,82.5 C 357.5,82.5 368.5,82.5 379.5,82.5C 379.5,79.5 379.5,76.5 379.5,73.5C 380.688,72.3157 381.855,72.3157 383,73.5C 383.789,77.0915 383.622,80.5915 382.5,84C 369.504,84.4999 356.504,84.6666 343.5,84.5C 343.5,87.1667 343.5,89.8333 343.5,92.5C 341.833,92.5 340.167,92.5 338.5,92.5C 338.5,89.1667 338.5,85.8333 338.5,82.5C 341.167,82.5 343.833,82.5 346.5,82.5 Z"/></g>
<g><path style="opacity:0.993" fill="#ff9bff" d="M 454.5,83.5 C 443.57,84.4597 432.57,84.4597 421.5,83.5C 421.5,82.8333 421.833,82.5 422.5,82.5C 428.675,82.3781 434.842,82.0448 441,81.5C 445.746,81.4387 450.246,82.1054 454.5,83.5 Z"/></g>
<g><path style="opacity:0.031" fill="#1afffe" d="M 130.5,83.5 C 130.5,86.5 130.5,89.5 130.5,92.5C 129.5,92.5 128.5,92.5 127.5,92.5C 127.5,90.8333 127.5,89.1667 127.5,87.5C 128.222,87.9175 128.722,88.5842 129,89.5C 129.191,87.2922 129.691,85.2922 130.5,83.5 Z"/></g>
<g><path style="opacity:0.018" fill="#ffc5ff" d="M 312.5,83.5 C 312.5,83.1667 312.5,82.8333 312.5,82.5C 312.833,82.5 313.167,82.5 313.5,82.5C 317.702,82.1832 321.702,82.5166 325.5,83.5C 321.167,84.8333 316.833,84.8333 312.5,83.5 Z"/></g>
<g><path style="opacity:0.103" fill="#ffd5ff" d="M 283.5,83.5 C 282.432,84.4345 281.099,84.7678 279.5,84.5C 279.806,87.3854 279.473,90.0521 278.5,92.5C 278.5,89.5 278.5,86.5 278.5,83.5C 280.167,83.5 281.833,83.5 283.5,83.5 Z"/></g>
<g><path style="opacity:0.802" fill="#92fffe" d="M 454.5,83.5 C 456.807,83.0137 458.973,83.0137 461,83.5C 462.632,87.3862 462.465,90.8862 460.5,94C 459.216,94.6838 458.049,94.5171 457,93.5C 456.95,89.8433 456.117,86.51 454.5,83.5 Z"/></g>
<g><path style="opacity:0.845" fill="#bbfffe" d="M 328.5,93.5 C 327.989,90.037 326.989,86.7037 325.5,83.5C 327.262,83.6427 328.929,83.3094 330.5,82.5C 331.478,82.9767 332.311,83.6433 333,84.5C 333.667,87.5 333.667,90.5 333,93.5C 331.384,94.8009 329.884,94.8009 328.5,93.5 Z"/></g>
<g><path style="opacity:1" fill="#00fffe" d="M 328.5,93.5 C 328.5,90.5 328.5,87.5 328.5,84.5C 329.5,84.5 330.5,84.5 331.5,84.5C 331.5,87.5 331.5,90.5 331.5,93.5C 330.5,93.5 329.5,93.5 328.5,93.5 Z"/></g>
<g><path style="opacity:1" fill="#fe28fe" d="M 48.5,93.5 C 48.5,94.1667 48.5,94.8333 48.5,95.5C 48.1583,96.3382 47.4916,96.6716 46.5,96.5C 46.1667,96.5 45.8333,96.5 45.5,96.5C 45.5,95.5 45.5,94.5 45.5,93.5C 46.5,93.5 47.5,93.5 48.5,93.5 Z"/></g>
<g><path style="opacity:0.031" fill="#f7fcfe" d="M 56.5,93.5 C 56.4142,94.4959 56.7476,95.3292 57.5,96C 56.8742,96.7504 56.3742,97.5838 56,98.5C 53.3813,97.7192 50.8813,96.7192 48.5,95.5C 48.5,94.8333 48.5,94.1667 48.5,93.5C 50.9193,93.1949 53.586,93.1949 56.5,93.5 Z"/></g>
<g><path style="opacity:0.02" fill="#e1f2fc" d="M 90.5,90.5 C 90.8212,92.0481 91.8212,92.7148 93.5,92.5C 96.1667,92.5 98.8333,92.5 101.5,92.5C 100.833,93.8333 100.167,95.1667 99.5,96.5C 97.8184,97.8273 96.4851,99.4939 95.5,101.5C 97.4552,96.1072 95.4552,93.4405 89.5,93.5C 89.2627,92.209 89.596,91.209 90.5,90.5 Z"/></g>
<g><path style="opacity:0.042" fill="#fafffe" d="M 130.5,94.5 C 130.5,94.1667 130.5,93.8333 130.5,93.5C 133.167,93.5 135.833,93.5 138.5,93.5C 137.69,95.7983 136.856,98.1316 136,100.5C 134.77,97.9636 132.937,95.9636 130.5,94.5 Z"/></g>
<g><path style="opacity:0.971" fill="#ff72fb" d="M 169.5,92.5 C 170.833,92.5 172.167,92.5 173.5,92.5C 173.5,93.8333 173.5,95.1667 173.5,96.5C 172.167,96.5 170.833,96.5 169.5,96.5C 169.5,95.1667 169.5,93.8333 169.5,92.5 Z"/></g>
<g><path style="opacity:0.939" fill="#53fffe" d="M 7.5,96.5 C 8.81166,98.7432 9.47832,101.41 9.5,104.5C 9.47832,107.59 8.81166,110.257 7.5,112.5C 6.16667,107.167 6.16667,101.833 7.5,96.5 Z"/></g>
<g><path style="opacity:0.996" fill="#ff4dfc" d="M 45.5,96.5 C 45.8333,96.5 46.1667,96.5 46.5,96.5C 45.3398,101.863 45.3398,107.03 46.5,112C 45.2068,112.49 43.8734,112.657 42.5,112.5C 42.5,107.167 42.5,101.833 42.5,96.5C 43.5,96.5 44.5,96.5 45.5,96.5 Z"/></g>
<g><path style="opacity:0.999" fill="#ff5cfc" d="M 81.5,92.5 C 83.604,92.2011 85.604,92.5344 87.5,93.5C 88.1296,98.7226 89.7963,103.723 92.5,108.5C 92.5,109.5 92.5,110.5 92.5,111.5C 91.8501,111.804 91.1835,112.137 90.5,112.5C 87.8742,107.452 85.5408,102.285 83.5,97C 83.9574,96.586 84.2907,96.086 84.5,95.5C 83.6602,94.265 82.6602,93.265 81.5,92.5 Z"/></g>
<g><path style="opacity:1" fill="#ff52fd" d="M 130.5,93.5 C 130.5,93.8333 130.5,94.1667 130.5,94.5C 126.703,99.5194 124.036,105.186 122.5,111.5C 122.043,112.298 121.376,112.631 120.5,112.5C 119.761,112.631 119.094,112.464 118.5,112C 120.662,106.85 122.829,101.684 125,96.5C 126.264,94.393 128.097,93.393 130.5,93.5 Z"/></g>
<g><path style="opacity:0.472" fill="#84d2f0" d="M 140.5,96.5 C 141.113,102.271 140.446,107.604 138.5,112.5C 138.077,107.038 138.743,101.704 140.5,96.5 Z"/></g>
<g><path style="opacity:1" fill="#ff5aff" d="M 164.5,99.5 C 165.596,103.413 165.762,107.413 165,111.5C 163.989,112.337 162.822,112.67 161.5,112.5C 161.5,107.167 161.5,101.833 161.5,96.5C 162.5,96.5 163.5,96.5 164.5,96.5C 164.5,97.5 164.5,98.5 164.5,99.5 Z"/></g>
<g><path style="opacity:0.012" fill="#fefffe" d="M 56.5,99.5 C 57.8333,100.167 57.8333,100.167 56.5,99.5 Z"/></g>
<g><path style="opacity:0.008" fill="#fefffe" d="M 57.5,101.5 C 58.8333,102.167 58.8333,102.167 57.5,101.5 Z"/></g>
<g><path style="opacity:0.031" fill="#f6fffe" d="M 95.5,101.5 C 95.2927,104.241 94.2927,106.574 92.5,108.5C 92.1824,105.519 93.1824,103.185 95.5,101.5 Z"/></g>
<g><path style="opacity:0.01" fill="#fefffe" d="M 228.5,104.5 C 229.5,105.167 230.5,105.833 231.5,106.5C 231.83,122.009 231.496,137.342 230.5,152.5C 230.667,138.496 230.5,124.496 230,110.5C 227.637,110.668 226.137,109.335 225.5,106.5C 227.179,106.715 228.179,106.048 228.5,104.5 Z"/></g>
<g><path style="opacity:0.924" fill="#ff81ff" d="M 292.5,105.5 C 276.797,104.849 261.464,105.516 246.5,107.5C 246.5,110.167 246.5,112.833 246.5,115.5C 245.167,115.5 243.833,115.5 242.5,115.5C 242.681,112.603 242.348,109.77 241.5,107C 241.93,105.566 242.764,104.399 244,103.5C 258.621,103.783 273.454,103.95 288.5,104C 290.058,104.21 291.391,104.71 292.5,105.5 Z"/></g>
<g><path style="opacity:0.994" fill="#ff5eff" d="M 180.5,104.5 C 186.965,104.078 187.798,105.745 183,109.5C 182.5,124.496 182.333,139.496 182.5,154.5C 180.833,154.5 179.167,154.5 177.5,154.5C 177.333,139.163 177.5,123.83 178,108.5C 178.662,107.016 179.496,105.683 180.5,104.5 Z"/></g>
<g><path style="opacity:0.884" fill="#fb13fe" d="M 221.5,105.5 C 221.5,115.5 221.5,125.5 221.5,135.5C 220.167,134.833 219.167,133.833 218.5,132.5C 218.5,123.5 218.5,114.5 218.5,105.5C 219.5,105.5 220.5,105.5 221.5,105.5 Z"/></g>
<g><path style="opacity:0.247" fill="#ffb4ff" d="M 292.5,105.5 C 277.265,106.181 261.931,106.848 246.5,107.5C 261.464,105.516 276.797,104.849 292.5,105.5 Z"/></g>
<g><path style="opacity:0.995" fill="#ff52ff" d="M 311.5,109.5 C 310.504,124.324 310.171,139.324 310.5,154.5C 309.167,154.5 307.833,154.5 306.5,154.5C 306.333,139.163 306.5,123.83 307,108.5C 308.895,104.389 311.728,103.556 315.5,106C 313.973,107.032 312.64,108.199 311.5,109.5 Z"/></g>
<g><path style="opacity:0.72" fill="#ff6dff" d="M 356.5,104.5 C 354.735,105.461 352.735,105.795 350.5,105.5C 349.5,105.5 348.5,105.5 347.5,105.5C 347.5,114.167 347.5,122.833 347.5,131.5C 346.833,131.5 346.5,131.167 346.5,130.5C 346.5,127.167 346.5,123.833 346.5,120.5C 346.5,115.167 346.5,109.833 346.5,104.5C 349.833,104.5 353.167,104.5 356.5,104.5 Z"/></g>
<g><path style="opacity:0.98" fill="#fb13fe" d="M 350.5,105.5 C 350.5,115.5 350.5,125.5 350.5,135.5C 348.738,134.738 347.738,133.404 347.5,131.5C 347.5,122.833 347.5,114.167 347.5,105.5C 348.5,105.5 349.5,105.5 350.5,105.5 Z"/></g>
<g><path style="opacity:1" fill="#ff6cff" d="M 421.5,105.5 C 412.833,105.5 404.167,105.5 395.5,105.5C 395.5,106.833 395.5,108.167 395.5,109.5C 397.594,113.799 396.26,115.799 391.5,115.5C 391.5,111.833 391.5,108.167 391.5,104.5C 398.37,104.785 405.37,104.451 412.5,103.5C 414.833,103.667 417.167,103.833 419.5,104C 420.416,104.278 421.082,104.778 421.5,105.5 Z"/></g>
<g><path style="opacity:0.411" fill="#ffbaff" d="M 421.5,105.5 C 413.35,106.493 405.017,106.826 396.5,106.5C 396.737,107.791 396.404,108.791 395.5,109.5C 395.5,108.167 395.5,106.833 395.5,105.5C 404.167,105.5 412.833,105.5 421.5,105.5 Z"/></g>
<g><path style="opacity:0.999" fill="#ff61ff" d="M 477.5,104.5 C 467.5,105.167 457.5,105.833 447.5,106.5C 444.167,107.833 441.833,110.167 440.5,113.5C 439.504,126.99 439.171,140.656 439.5,154.5C 438.167,154.5 436.833,154.5 435.5,154.5C 435.049,139.428 435.549,124.428 437,109.5C 438.543,107.622 440.376,106.122 442.5,105C 454.193,103.645 465.86,103.478 477.5,104.5 Z"/></g>
<g><path style="opacity:0.417" fill="#ffb3ff" d="M 477.5,104.5 C 478.922,104.709 480.255,105.209 481.5,106C 470.172,106.5 458.838,106.667 447.5,106.5C 457.5,105.833 467.5,105.167 477.5,104.5 Z"/></g>
<g><path style="opacity:0.008" fill="#fefffe" d="M 60.5,108.5 C 59.475,108.103 59.3083,107.437 60,106.5C 60.4643,107.094 60.631,107.761 60.5,108.5 Z"/></g>
<g><path style="opacity:1" fill="#68fffe" d="M 231.5,106.5 C 232.833,106.5 234.167,106.5 235.5,106.5C 236.91,122.501 236.743,138.501 235,154.5C 232.297,158.12 229.463,158.287 226.5,155C 227.984,154.338 229.317,153.504 230.5,152.5C 231.496,137.342 231.83,122.009 231.5,106.5 Z"/></g>
<g><path style="opacity:1" fill="#70fffe" d="M 360.5,106.5 C 362.144,106.286 363.644,106.62 365,107.5C 365.667,122.167 365.667,136.833 365,151.5C 363.345,156.588 360.178,157.755 355.5,155C 358.102,154.065 359.602,152.232 360,149.5C 360.424,135.045 360.591,120.712 360.5,106.5 Z"/></g>
<g><path style="opacity:1" fill="#62fffe" d="M 421.5,156.5 C 409.5,156.5 397.5,156.5 385.5,156.5C 384.833,156.5 384.5,156.167 384.5,155.5C 394.455,155.141 404.455,154.975 414.5,155C 418.232,155.188 421.066,153.688 423,150.5C 424.467,135.93 424.967,121.264 424.5,106.5C 426.167,106.5 427.833,106.5 429.5,106.5C 429.667,120.837 429.5,135.171 429,149.5C 427.917,153.418 425.417,155.752 421.5,156.5 Z"/></g>
<g><path style="opacity:0.027" fill="#fefffe" d="M 60.5,108.5 C 61.3446,109.671 62.0113,111.005 62.5,112.5C 60.5,112.5 58.5,112.5 56.5,112.5C 55.5,112.5 54.5,112.5 53.5,112.5C 56.3053,111.895 58.6387,110.562 60.5,108.5 Z"/></g>
<g><path style="opacity:0.994" fill="#77fffe" d="M 216.5,128.5 C 216.328,129.492 216.662,130.158 217.5,130.5C 217.328,131.492 217.662,132.158 218.5,132.5C 219.167,133.833 220.167,134.833 221.5,135.5C 221.5,136.167 221.833,136.5 222.5,136.5C 222.483,138.028 221.816,138.528 220.5,138C 210.637,127.803 200.471,117.97 190,108.5C 189.568,107.4 190.068,106.733 191.5,106.5C 199.591,113.087 207.258,120.253 214.5,128C 215.094,128.464 215.761,128.631 216.5,128.5 Z"/></g>
<g><path style="opacity:0.987" fill="#76feff" d="M 344.5,128.5 C 344.833,129.5 345.5,130.167 346.5,130.5C 346.5,131.167 346.833,131.5 347.5,131.5C 347.738,133.404 348.738,134.738 350.5,135.5C 350.5,136.167 350.833,136.5 351.5,136.5C 351.483,138.028 350.816,138.528 349.5,138C 339.167,127.667 328.833,117.333 318.5,107C 319.833,106.333 321.167,106.333 322.5,107C 329.729,114.397 337.062,121.563 344.5,128.5 Z"/></g>
<g><path style="opacity:0.013" fill="#f5fffe" d="M 137.5,112.5 C 135.5,112.5 133.5,112.5 131.5,112.5C 133.19,111.897 134.69,110.897 136,109.5C 136.513,110.527 137.013,111.527 137.5,112.5 Z"/></g>
<g><path style="opacity:1" fill="#77fffe" d="M 483.5,107.5 C 488.764,106.519 492.264,108.852 494,114.5C 494.667,128.167 494.667,141.833 494,155.5C 490.623,157.942 487.123,158.109 483.5,156C 485.218,155.654 486.885,155.154 488.5,154.5C 489.666,141.179 489.833,127.846 489,114.5C 488.093,111.428 486.26,109.095 483.5,107.5 Z"/></g>
<g><path style="opacity:0.441" fill="#ff98ff" d="M 311.5,109.5 C 311.233,124.295 311.566,138.795 312.5,153C 311.956,153.717 311.289,154.217 310.5,154.5C 310.171,139.324 310.504,124.324 311.5,109.5 Z"/></g>
<g><path style="opacity:0.088" fill="#ffceff" d="M 356.5,104.5 C 357.043,104.56 357.376,104.893 357.5,105.5C 355.659,106.23 353.825,106.897 352,107.5C 351.5,117.161 351.334,126.828 351.5,136.5C 350.833,136.5 350.5,136.167 350.5,135.5C 350.5,125.5 350.5,115.5 350.5,105.5C 352.735,105.795 354.735,105.461 356.5,104.5 Z"/></g>
<g><path style="opacity:0.012" fill="#e0f0fa" d="M 10.5,67.5 C 10.5,69.8333 10.5,72.1667 10.5,74.5C 10.5,79.1667 10.5,83.8333 10.5,88.5C 10.5,90.1667 10.5,91.8333 10.5,93.5C 12.1667,93.5 13.8333,93.5 15.5,93.5C 17.5,93.5 19.5,93.5 21.5,93.5C 21.5,94.1667 21.5,94.8333 21.5,95.5C 18.091,95.2493 14.7577,95.5827 11.5,96.5C 10.5052,101.792 10.1718,107.125 10.5,112.5C 12.1667,112.5 13.8333,112.5 15.5,112.5C 14.6993,114.042 14.366,115.708 14.5,117.5C 14.5,121.167 14.5,124.833 14.5,128.5C 14.5,130.5 14.5,132.5 14.5,134.5C 14.5,135.5 14.5,136.5 14.5,137.5C 15.5,137.5 16.5,137.5 17.5,137.5C 16.0813,138.451 14.4147,138.784 12.5,138.5C 12.5,139.5 12.5,140.5 12.5,141.5C 11.9779,139.781 10.9779,138.448 9.5,137.5C 10.5676,136.566 11.901,136.232 13.5,136.5C 13.5,128.833 13.5,121.167 13.5,113.5C 11.2646,113.795 9.26465,113.461 7.5,112.5C 8.81166,110.257 9.47832,107.59 9.5,104.5C 9.47832,101.41 8.81166,98.7432 7.5,96.5C 7.78281,95.7109 8.28281,95.0442 9,94.5C 9.17025,85.324 9.67025,76.324 10.5,67.5 Z"/></g>
<g><path style="opacity:0.023" fill="#13feff" d="M 16.5,112.5 C 17.4927,120.65 17.8261,128.983 17.5,137.5C 16.5,137.5 15.5,137.5 14.5,137.5C 14.5,136.5 14.5,135.5 14.5,134.5C 15.2216,134.918 15.7216,135.584 16,136.5C 16.6667,133.5 16.6667,130.5 16,127.5C 15.6174,128.056 15.1174,128.389 14.5,128.5C 14.5,124.833 14.5,121.167 14.5,117.5C 15.1174,117.611 15.6174,117.944 16,118.5C 16.4955,116.527 16.6621,114.527 16.5,112.5 Z"/></g>
<g><path style="opacity:0.966" fill="#fd1afd" d="M 35.5,113.5 C 35.5,116.167 35.5,118.833 35.5,121.5C 34.791,122.404 33.791,122.737 32.5,122.5C 32.5,119.167 32.5,115.833 32.5,112.5C 33.791,112.263 34.791,112.596 35.5,113.5 Z"/></g>
<g><path style="opacity:0.625" fill="#72f6fc" d="M 53.5,112.5 C 54.5,112.5 55.5,112.5 56.5,112.5C 57.6892,115.714 59.0225,118.88 60.5,122C 63.992,121.93 66.992,122.763 69.5,124.5C 65.5539,124.41 61.5539,123.576 57.5,122C 57.8333,121.667 58.1667,121.333 58.5,121C 57.5838,120.626 56.7504,120.126 56,119.5C 54.8822,117.235 54.0488,114.901 53.5,112.5 Z"/></g>
<g><path style="opacity:1" fill="#ff49fd" d="M 111.5,114.5 C 111.396,116.703 110.73,118.703 109.5,120.5C 108.844,121.278 108.011,121.944 107,122.5C 106.5,122.167 106,121.833 105.5,121.5C 106.764,118.875 107.931,116.208 109,113.5C 110.461,112.117 111.294,112.451 111.5,114.5 Z"/></g>
<g><path style="opacity:0.88" fill="#77fafd" d="M 130.5,112.5 C 130.5,115.833 130.5,119.167 130.5,122.5C 129.5,122.5 128.5,122.5 127.5,122.5C 126.508,119.221 126.341,115.888 127,112.5C 128.292,111.209 129.458,111.209 130.5,112.5 Z"/></g>
<g><path style="opacity:1" fill="#fe26fe" d="M 159.5,113.5 C 159.5,116.167 159.5,118.833 159.5,121.5C 158.791,122.404 157.791,122.737 156.5,122.5C 156.5,119.167 156.5,115.833 156.5,112.5C 157.791,112.263 158.791,112.596 159.5,113.5 Z"/></g>
<g><path style="opacity:0.957" fill="#99feff" d="M 280.5,144.5 C 280.5,144.833 280.5,145.167 280.5,145.5C 280.167,145.5 279.833,145.5 279.5,145.5C 279.5,135.833 279.5,126.167 279.5,116.5C 278.5,116.5 277.5,116.5 276.5,116.5C 276.5,126.167 276.5,135.833 276.5,145.5C 275.506,135.681 275.173,125.681 275.5,115.5C 282.167,115.167 288.833,114.833 295.5,114.5C 295.5,111.833 295.5,109.167 295.5,106.5C 297.167,106.5 298.833,106.5 300.5,106.5C 300.5,110.167 300.5,113.833 300.5,117.5C 293.852,118.139 287.186,118.473 280.5,118.5C 280.5,127.167 280.5,135.833 280.5,144.5 Z"/></g>
<g><path style="opacity:0.42" fill="#ff98ff" d="M 440.5,113.5 C 440.195,126.371 440.528,139.204 441.5,152C 441.361,153.301 440.695,154.134 439.5,154.5C 439.171,140.656 439.504,126.99 440.5,113.5 Z"/></g>
<g><path style="opacity:0.408" fill="#9bfffe" d="M 266.5,116.5 C 264.517,116.157 263.183,116.824 262.5,118.5C 258.21,117.889 253.877,117.222 249.5,116.5C 255.32,115.184 260.987,115.184 266.5,116.5 Z"/></g>
<g><path style="opacity:1" fill="#29fffe" d="M 279.5,145.5 C 278.5,146.833 277.5,146.833 276.5,145.5C 276.5,135.833 276.5,126.167 276.5,116.5C 277.5,116.5 278.5,116.5 279.5,116.5C 279.5,126.167 279.5,135.833 279.5,145.5 Z"/></g>
<g><path style="opacity:0.527" fill="#99fefe" d="M 415.5,116.5 C 413.901,116.232 412.568,116.566 411.5,117.5C 411.167,117.5 410.833,117.5 410.5,117.5C 406.445,117.824 402.445,117.491 398.5,116.5C 404.32,115.184 409.987,115.184 415.5,116.5 Z"/></g>
<g><path style="opacity:1" fill="#6bfbfe" d="M 479.5,125.5 C 479.5,122.5 479.5,119.5 479.5,116.5C 478.167,116.5 476.833,116.5 475.5,116.5C 468.167,116.5 460.833,116.5 453.5,116.5C 453.5,119.167 453.5,121.833 453.5,124.5C 453.5,125.167 453.833,125.5 454.5,125.5C 453.081,126.451 451.415,126.784 449.5,126.5C 449.5,122.833 449.5,119.167 449.5,115.5C 459.833,115.5 470.167,115.5 480.5,115.5C 480.813,119.042 480.479,122.375 479.5,125.5 Z M 475.5,118.5 C 475.5,120.167 475.5,121.833 475.5,123.5C 468.504,123.894 461.504,124.227 454.5,124.5C 454.338,122.473 454.505,120.473 455,118.5C 455.561,117.978 456.228,117.645 457,117.5C 463.119,118.438 469.286,118.772 475.5,118.5 Z"/></g>
<g><path style="opacity:0.642" fill="#cbfffe" d="M 475.5,116.5 C 475.5,117.167 475.5,117.833 475.5,118.5C 469.286,118.772 463.119,118.438 457,117.5C 456.228,117.645 455.561,117.978 455,118.5C 454.505,120.473 454.338,122.473 454.5,124.5C 454.167,124.5 453.833,124.5 453.5,124.5C 453.5,121.833 453.5,119.167 453.5,116.5C 460.833,116.5 468.167,116.5 475.5,116.5 Z"/></g>
<g><path style="opacity:0.987" fill="#ff40ff" d="M 266.5,116.5 C 266.666,126.172 266.5,135.839 266,145.5C 259.605,145.18 253.105,145.514 246.5,146.5C 246.5,149.167 246.5,151.833 246.5,154.5C 245.167,154.5 243.833,154.5 242.5,154.5C 242.085,150.625 242.585,146.958 244,143.5C 249.717,144.179 255.551,144.179 261.5,143.5C 262.498,135.193 262.831,126.86 262.5,118.5C 263.183,116.824 264.517,116.157 266.5,116.5 Z"/></g>
<g><path style="opacity:0.01" fill="#fffeff" d="M 410.5,117.5 C 410.833,117.5 411.167,117.5 411.5,117.5C 411.5,126.5 411.5,135.5 411.5,144.5C 410.5,144.5 409.5,144.5 408.5,144.5C 410.428,135.765 411.095,126.765 410.5,117.5 Z"/></g>
<g><path style="opacity:0.99" fill="#fe34ff" d="M 415.5,116.5 C 415.806,126.109 415.806,135.775 415.5,145.5C 406.833,145.5 398.167,145.5 389.5,145.5C 389.5,145.167 389.5,144.833 389.5,144.5C 395.833,144.5 402.167,144.5 408.5,144.5C 409.5,144.5 410.5,144.5 411.5,144.5C 411.5,135.5 411.5,126.5 411.5,117.5C 412.568,116.566 413.901,116.232 415.5,116.5 Z"/></g>
<g><path style="opacity:1" fill="#ff72ff" d="M 475.5,116.5 C 476.833,116.5 478.167,116.5 479.5,116.5C 479.5,119.5 479.5,122.5 479.5,125.5C 471.335,126.334 463.002,126.334 454.5,125.5C 453.833,125.5 453.5,125.167 453.5,124.5C 453.833,124.5 454.167,124.5 454.5,124.5C 461.504,124.227 468.504,123.894 475.5,123.5C 475.5,121.833 475.5,120.167 475.5,118.5C 475.5,117.833 475.5,117.167 475.5,116.5 Z"/></g>
<g><path style="opacity:0.401" fill="#ff8bff" d="M 227.5,104.5 C 225.735,105.461 223.735,105.795 221.5,105.5C 220.5,105.5 219.5,105.5 218.5,105.5C 218.5,114.5 218.5,123.5 218.5,132.5C 217.662,132.158 217.328,131.492 217.5,130.5C 217.5,129.833 217.5,129.167 217.5,128.5C 217.5,127.167 217.5,125.833 217.5,124.5C 217.334,117.825 217.5,111.158 218,104.5C 221.269,103.182 224.435,103.182 227.5,104.5 Z"/></g>
<g><path style="opacity:0.02" fill="#fefffe" d="M 346.5,120.5 C 346.5,123.833 346.5,127.167 346.5,130.5C 345.5,130.167 344.833,129.5 344.5,128.5C 343.87,125.684 344.536,123.018 346.5,120.5 Z"/></g>
<g><path style="opacity:1" fill="#ff40ff" d="M 49.5,136.5 C 48.791,137.404 47.791,137.737 46.5,137.5C 46.5,132.5 46.5,127.5 46.5,122.5C 47.1894,121.226 48.0228,121.226 49,122.5C 49.4992,127.155 49.6658,131.821 49.5,136.5 Z"/></g>
<g><path style="opacity:0.999" fill="#ff52fd" d="M 115.5,125.5 C 114.401,131.699 111.734,137.032 107.5,141.5C 106.833,141.5 106.167,141.5 105.5,141.5C 108.52,136.12 111.02,130.454 113,124.5C 114.461,123.117 115.294,123.451 115.5,125.5 Z"/></g>
<g><path style="opacity:0.631" fill="#a3cef0" d="M 127.5,122.5 C 128.5,122.5 129.5,122.5 130.5,122.5C 133.833,122.5 137.167,122.5 140.5,122.5C 140.821,127.695 140.487,132.695 139.5,137.5C 139.5,133.167 139.5,128.833 139.5,124.5C 139.158,123.662 138.492,123.328 137.5,123.5C 136.833,123.5 136.5,123.833 136.5,124.5C 133.39,123.912 130.39,123.245 127.5,122.5 Z"/></g>
<g><path style="opacity:1" fill="#ff5fff" d="M 161.5,122.5 C 163.124,122.36 164.29,123.027 165,124.5C 165.768,128.92 165.602,133.253 164.5,137.5C 163.5,137.5 162.5,137.5 161.5,137.5C 161.5,132.5 161.5,127.5 161.5,122.5 Z"/></g>
<g><path style="opacity:1" fill="#5afffe" d="M 196.5,126.5 C 195.596,127.209 195.263,128.209 195.5,129.5C 195.5,138.5 195.5,147.5 195.5,156.5C 192.313,157.806 188.98,157.806 185.5,156.5C 185.624,155.893 185.957,155.56 186.5,155.5C 188.167,155.5 189.833,155.5 191.5,155.5C 191.5,149.167 191.5,142.833 191.5,136.5C 191.751,133.091 191.417,129.758 190.5,126.5C 192.414,122.683 194.414,122.683 196.5,126.5 Z"/></g>
<g><path style="opacity:0.005" fill="#fefffe" d="M 217.5,124.5 C 217.5,125.833 217.5,127.167 217.5,128.5C 217.167,128.5 216.833,128.5 216.5,128.5C 215.046,126.737 215.38,125.403 217.5,124.5 Z"/></g>
<g><path style="opacity:1" fill="#61fffe" d="M 324.5,126.5 C 324.5,127.5 324.5,128.5 324.5,129.5C 324.5,138.5 324.5,147.5 324.5,156.5C 321.375,157.479 318.042,157.813 314.5,157.5C 314.5,156.5 314.5,155.5 314.5,154.5C 316.5,154.5 318.5,154.5 320.5,154.5C 320.818,144.917 320.485,135.417 319.5,126C 320.191,124.933 320.691,123.766 321,122.5C 323.071,123.103 324.238,124.436 324.5,126.5 Z"/></g>
<g><path style="opacity:0.012" fill="#fefffe" d="M 66.5,125.5 C 67.8333,126.167 67.8333,126.167 66.5,125.5 Z"/></g>
<g><path style="opacity:0.618" fill="#78f6fc" d="M 69.5,124.5 C 71.5533,130.434 74.5533,135.934 78.5,141C 75.1667,141.333 71.8333,141.667 68.5,142C 70.0664,142.608 71.3998,143.442 72.5,144.5C 70.5072,145.537 68.5072,145.203 66.5,143.5C 65.6143,142.675 65.281,141.675 65.5,140.5C 68.5184,140.665 71.5184,140.498 74.5,140C 71.396,136.46 69.0627,132.46 67.5,128C 68.9733,127.29 69.6399,126.124 69.5,124.5 Z"/></g>
<g><path style="opacity:0.166" fill="#87fffe" d="M 137.5,123.5 C 137.409,125.698 138.075,126.031 139.5,124.5C 139.5,128.833 139.5,133.167 139.5,137.5C 138.167,137.5 136.833,137.5 135.5,137.5C 136.436,133.265 136.769,128.931 136.5,124.5C 136.5,123.833 136.833,123.5 137.5,123.5 Z"/></g>
<g><path style="opacity:0.2" fill="#d8fbff" d="M 195.5,129.5 C 196.5,129.833 197.167,130.5 197.5,131.5C 196.243,132.623 196.576,133.289 198.5,133.5C 196.964,141.152 195.964,148.819 195.5,156.5C 195.5,147.5 195.5,138.5 195.5,129.5 Z"/></g>
<g><path style="opacity:0.232" fill="#d2fbff" d="M 324.5,129.5 C 325.5,129.833 326.167,130.5 326.5,131.5C 325.833,139.833 325.167,148.167 324.5,156.5C 324.5,147.5 324.5,138.5 324.5,129.5 Z"/></g>
<g><path style="opacity:0.027" fill="#fed4ff" d="M 227.5,104.5 C 227.833,104.5 228.167,104.5 228.5,104.5C 228.179,106.048 227.179,106.715 225.5,106.5C 224.504,106.414 223.671,106.748 223,107.5C 222.5,117.161 222.334,126.828 222.5,136.5C 221.833,136.5 221.5,136.167 221.5,135.5C 221.5,125.5 221.5,115.5 221.5,105.5C 223.735,105.795 225.735,105.461 227.5,104.5 Z"/></g>
<g><path style="opacity:0.953" fill="#ff78ff" d="M 381.5,135.5 C 379.5,135.5 377.5,135.5 375.5,135.5C 374.5,135.5 373.5,135.5 372.5,135.5C 372.5,139.833 372.5,144.167 372.5,148.5C 371.729,145.154 371.062,141.654 370.5,138C 370.862,136.775 371.362,135.609 372,134.5C 374.041,134.643 376.208,134.309 378.5,133.5C 380.487,133.868 381.487,134.534 381.5,135.5 Z"/></g>
<g><path style="opacity:1" fill="#ff3aff" d="M 375.5,135.5 C 375.5,136.5 375.5,137.5 375.5,138.5C 375.334,142.674 376,146.674 377.5,150.5C 378.116,151.798 378.116,152.798 377.5,153.5C 374.833,152.833 373.167,151.167 372.5,148.5C 372.5,144.167 372.5,139.833 372.5,135.5C 373.5,135.5 374.5,135.5 375.5,135.5 Z"/></g>
<g><path style="opacity:0.071" fill="#ffe5ff" d="M 375.5,135.5 C 377.5,135.5 379.5,135.5 381.5,135.5C 379.361,136.158 377.361,137.158 375.5,138.5C 375.5,137.5 375.5,136.5 375.5,135.5 Z"/></g>
<g><path style="opacity:0.008" fill="#fefffe" d="M 191.5,136.5 C 191.5,142.833 191.5,149.167 191.5,155.5C 189.833,155.5 188.167,155.5 186.5,155.5C 187.568,154.566 188.901,154.232 190.5,154.5C 190.177,148.31 190.51,142.31 191.5,136.5 Z"/></g>
<g><path style="opacity:1" fill="#7afbfe" d="M 479.5,154.5 C 479.5,148.5 479.5,142.5 479.5,136.5C 478.167,136.5 476.833,136.5 475.5,136.5C 468.167,136.5 460.833,136.5 453.5,136.5C 453.5,143.167 453.5,149.833 453.5,156.5C 452.207,157.158 450.707,157.492 449,157.5C 442.167,156.863 442.001,155.863 448.5,154.5C 449.184,147.945 449.851,141.445 450.5,135C 460.455,135.395 470.455,135.561 480.5,135.5C 480.823,142.022 480.49,148.355 479.5,154.5 Z"/></g>
<g><path style="opacity:0.841" fill="#88fdff" d="M 389.5,144.5 C 389.5,144.833 389.5,145.167 389.5,145.5C 385.428,147.279 383.761,145.779 384.5,141C 384.833,139.5 385.167,138 385.5,136.5C 386.451,135.674 387.451,135.508 388.5,136C 389.444,138.719 389.777,141.552 389.5,144.5 Z"/></g>
<g><path style="opacity:0.229" fill="#d1fffe" d="M 475.5,136.5 C 475.5,136.833 475.5,137.167 475.5,137.5C 468.5,137.5 461.5,137.5 454.5,137.5C 454.823,144.022 454.49,150.355 453.5,156.5C 453.5,149.833 453.5,143.167 453.5,136.5C 460.833,136.5 468.167,136.5 475.5,136.5 Z"/></g>
<g><path style="opacity:0.999" fill="#fd31ff" d="M 475.5,136.5 C 476.833,136.5 478.167,136.5 479.5,136.5C 479.5,142.5 479.5,148.5 479.5,154.5C 478.167,154.5 476.833,154.5 475.5,154.5C 475.5,148.833 475.5,143.167 475.5,137.5C 475.5,137.167 475.5,136.833 475.5,136.5 Z"/></g>
<g><path style="opacity:0.979" fill="#81f8fd" d="M 9.5,137.5 C 10.9779,138.448 11.9779,139.781 12.5,141.5C 13.4794,144.625 13.8128,147.958 13.5,151.5C 17.1667,151.5 20.8333,151.5 24.5,151.5C 24.3253,153.621 24.6586,155.621 25.5,157.5C 25.5,158.167 25.1667,158.5 24.5,158.5C 21.7079,157.608 20.3746,155.608 20.5,152.5C 16.8936,152.789 13.3936,152.456 10,151.5C 9.64587,147.646 9.14587,143.812 8.5,140C 8.52804,138.93 8.86137,138.097 9.5,137.5 Z"/></g>
<g><path style="opacity:0.755" fill="#ff6efa" d="M 56.5,137.5 C 59.0784,139.126 58.9117,140.792 56,142.5C 55.6174,141.944 55.1174,141.611 54.5,141.5C 54.1568,139.517 54.8235,138.183 56.5,137.5 Z"/></g>
<g><path style="opacity:0.999" fill="#7bfffe" d="M 122.5,137.5 C 122.5,138.833 122.5,140.167 122.5,141.5C 122.565,141.938 122.399,142.272 122,142.5C 117.531,140.453 117.698,138.786 122.5,137.5 Z"/></g>
<g><path style="opacity:0.018" fill="#fefffe" d="M 118.5,143.5 C 116.167,143.5 113.833,143.5 111.5,143.5C 114.054,139.836 116.387,139.836 118.5,143.5 Z"/></g>
<g><path style="opacity:1" fill="#fb2ffe" d="M 44.5,141.5 C 44.5,143.5 44.5,145.5 44.5,147.5C 44.5,147.833 44.5,148.167 44.5,148.5C 43.375,149.348 43.375,150.348 44.5,151.5C 43.5,151.5 42.5,151.5 41.5,151.5C 41.5,148.167 41.5,144.833 41.5,141.5C 42.5,141.5 43.5,141.5 44.5,141.5 Z"/></g>
<g><path style="opacity:0.021" fill="#fcfefe" d="M 123.5,141.5 C 127.167,141.5 130.833,141.5 134.5,141.5C 134.5,144.833 134.5,148.167 134.5,151.5C 133.833,151.5 133.167,151.5 132.5,151.5C 131.5,151.5 130.5,151.5 129.5,151.5C 130.398,150.842 131.398,150.176 132.5,149.5C 129.329,149.245 128.996,147.745 131.5,145C 130.711,142.572 129.377,142.072 127.5,143.5C 126.167,143.5 124.833,143.5 123.5,143.5C 123.5,142.833 123.5,142.167 123.5,141.5 Z"/></g>
<g><path style="opacity:0.981" fill="#31fdfe" d="M 134.5,141.5 C 135.5,141.5 136.5,141.5 137.5,141.5C 137.5,144.833 137.5,148.167 137.5,151.5C 136.5,151.5 135.5,151.5 134.5,151.5C 134.5,148.167 134.5,144.833 134.5,141.5 Z"/></g>
<g><path style="opacity:1" fill="#ff39ff" d="M 161.5,141.5 C 162.479,144.625 162.813,147.958 162.5,151.5C 161.5,151.5 160.5,151.5 159.5,151.5C 158.931,147.671 159.598,144.337 161.5,141.5 Z"/></g>
<g><path style="opacity:0.857" fill="#fa8fe6" d="M 121.5,143.5 C 122.167,143.5 122.833,143.5 123.5,143.5C 124.833,143.5 126.167,143.5 127.5,143.5C 127.5,144.167 127.5,144.833 127.5,145.5C 119.493,145.666 111.493,145.5 103.5,145C 109.681,144.828 115.681,144.328 121.5,143.5 Z"/></g>
<g><path style="opacity:0.957" fill="#ff7aff" d="M 280.5,145.5 C 280.5,145.167 280.5,144.833 280.5,144.5C 284.51,143.164 288.51,143.33 292.5,145C 288.514,145.499 284.514,145.666 280.5,145.5 Z"/></g>
<g><path style="opacity:0.503" fill="#dad6f8" d="M 96.5,142.5 C 99.2869,141.523 102.287,141.19 105.5,141.5C 106.167,141.5 106.833,141.5 107.5,141.5C 108.183,143.176 109.517,143.843 111.5,143.5C 113.833,143.5 116.167,143.5 118.5,143.5C 119.5,143.5 120.5,143.5 121.5,143.5C 115.681,144.328 109.681,144.828 103.5,145C 111.493,145.5 119.493,145.666 127.5,145.5C 118.682,146.493 109.682,146.827 100.5,146.5C 100.33,145.178 100.663,144.011 101.5,143C 99.8659,142.506 98.1992,142.34 96.5,142.5 Z"/></g>
<g><path style="opacity:0.903" fill="#cfd1f6" d="M 69.5,147.5 C 61.8583,148.192 54.1916,148.692 46.5,149C 53.0133,149.172 59.3466,149.672 65.5,150.5C 59.7969,150.375 54.1302,150.708 48.5,151.5C 47.5,151.5 46.5,151.5 45.5,151.5C 45.1667,151.5 44.8333,151.5 44.5,151.5C 43.375,150.348 43.375,149.348 44.5,148.5C 44.5,148.167 44.5,147.833 44.5,147.5C 48.1533,146.172 51.8199,146.172 55.5,147.5C 58.3889,147.069 61.2222,146.403 64,145.5C 66.0299,145.954 67.8632,146.62 69.5,147.5 Z"/></g>
<g><path style="opacity:1" fill="#80fffe" d="M 299.5,156.5 C 283.167,156.5 266.833,156.5 250.5,156.5C 249.62,155.469 250.12,154.802 252,154.5C 265.841,154.553 279.674,154.886 293.5,155.5C 294.086,155.291 294.586,154.957 295,154.5C 295.497,151.854 295.664,149.187 295.5,146.5C 297.167,146.5 298.833,146.5 300.5,146.5C 300.813,150.042 300.479,153.375 299.5,156.5 Z"/></g>
<g><path style="opacity:0.981" fill="#fa97e9" d="M 69.5,147.5 C 71.4646,147.948 71.7979,148.948 70.5,150.5C 68.8716,151.535 67.205,151.535 65.5,150.5C 59.3466,149.672 53.0133,149.172 46.5,149C 54.1916,148.692 61.8583,148.192 69.5,147.5 Z"/></g>
<g><path style="opacity:1" fill="#ff76ff" d="M 324.5,126.5 C 334.134,135.66 343.801,144.826 353.5,154C 351.833,154.667 350.167,154.667 348.5,154C 340.964,146.632 333.631,139.132 326.5,131.5C 326.167,130.5 325.5,129.833 324.5,129.5C 324.5,128.5 324.5,127.5 324.5,126.5 Z"/></g>
<g><path style="opacity:1" fill="#ff3dfe" d="M 45.5,151.5 C 46.5,151.5 47.5,151.5 48.5,151.5C 48.6621,153.527 48.4955,155.527 48,157.5C 47.3292,158.252 46.4959,158.586 45.5,158.5C 44.8333,158.5 44.1667,158.5 43.5,158.5C 45.1675,156.521 45.8342,154.188 45.5,151.5 Z"/></g>
<g><path style="opacity:0.995" fill="#69f7fc" d="M 129.5,151.5 C 130.5,151.5 131.5,151.5 132.5,151.5C 132.325,153.621 132.659,155.621 133.5,157.5C 133.158,158.338 132.492,158.672 131.5,158.5C 128.782,156.618 128.115,154.285 129.5,151.5 Z"/></g>
<g><path style="opacity:1" fill="#ff3bfd" d="M 156.5,151.5 C 156.662,153.527 156.495,155.527 156,157.5C 155.329,158.252 154.496,158.586 153.5,158.5C 152.833,158.5 152.167,158.5 151.5,158.5C 153.168,156.521 153.834,154.188 153.5,151.5C 154.5,151.5 155.5,151.5 156.5,151.5 Z"/></g>
<g><path style="opacity:1" fill="#ff79ff" d="M 196.5,126.5 C 205.523,135.871 214.856,145.038 224.5,154C 222.833,154.667 221.167,154.667 219.5,154C 212.632,146.964 205.632,140.131 198.5,133.5C 198.167,132.833 197.833,132.167 197.5,131.5C 197.167,130.5 196.5,129.833 195.5,129.5C 195.263,128.209 195.596,127.209 196.5,126.5 Z"/></g>
<g><path style="opacity:0.945" fill="#ffaeff" d="M 377.5,150.5 C 382.468,153.649 382.468,154.649 377.5,153.5C 378.116,152.798 378.116,151.798 377.5,150.5 Z"/></g>
<g><path style="opacity:0.004" fill="#fefffe" d="M 384.5,155.5 C 383.833,154.167 383.833,154.167 384.5,155.5 Z"/></g>
<g><path style="opacity:0.052" fill="#fefffe" d="M 250.5,156.5 C 266.833,156.5 283.167,156.5 299.5,156.5C 294.966,157.216 290.299,157.883 285.5,158.5C 273.705,157.853 262.038,157.186 250.5,156.5 Z"/></g>
<g><path style="opacity:0.043" fill="#fefffe" d="M 385.5,156.5 C 397.5,156.5 409.5,156.5 421.5,156.5C 411.295,157.189 400.962,157.855 390.5,158.5C 388.664,157.972 386.997,157.306 385.5,156.5 Z"/></g>
<g><path style="opacity:0.342" fill="#dfdbfa" d="M 25.5,157.5 C 31.4093,158.455 37.4093,158.789 43.5,158.5C 44.1667,158.5 44.8333,158.5 45.5,158.5C 38.5,159.833 31.5,159.833 24.5,158.5C 25.1667,158.5 25.5,158.167 25.5,157.5 Z"/></g>
<g><path style="opacity:0.35" fill="#dfdcfa" d="M 133.5,157.5 C 139.409,158.455 145.409,158.789 151.5,158.5C 152.167,158.5 152.833,158.5 153.5,158.5C 146.167,159.833 138.833,159.833 131.5,158.5C 132.492,158.672 133.158,158.338 133.5,157.5 Z"/></g>
</svg>
